<?xml version="1.0" standalone="no"?>
<!DOCTYPE svg PUBLIC "-//W3C//DTD SVG 20010904//EN"
 "http://www.w3.org/TR/2001/REC-SVG-20010904/DTD/svg10.dtd">
<svg version="1.0" xmlns="http://www.w3.org/2000/svg"
 width="512.000000pt" height="512.000000pt" viewBox="0 0 512.000000 512.000000"
 preserveAspectRatio="xMidYMid meet">
<metadata>
Created by potrace 1.14, written by Peter Selinger 2001-2017
</metadata>
<g transform="translate(0.000000,512.000000) scale(0.100000,-0.100000)"
fill="#000000" stroke="none">
<path d="M2453 5034 c-72 -15 -143 -43 -211 -83 -51 -30 -52 -30 -89 -14 -21
8 -65 16 -99 16 -191 1 -317 -201 -233 -372 l26 -52 -62 -122 c-34 -67 -77
-159 -95 -205 -25 -61 -38 -81 -49 -78 -54 16 -241 30 -391 31 -173 0 -237 -5
-328 -26 -26 -6 -57 -13 -68 -15 -47 -9 -163 -57 -225 -94 -185 -109 -286
-280 -297 -500 -4 -81 -8 -107 -20 -114 -35 -20 -83 -84 -98 -130 -19 -57 -15
-145 10 -198 40 -83 137 -148 224 -148 l49 0 67 -104 c36 -57 93 -139 126
-182 33 -43 60 -81 60 -84 0 -3 -34 -50 -75 -104 -171 -224 -284 -453 -329
-661 -23 -111 -16 -282 17 -374 46 -129 127 -231 248 -309 31 -20 64 -41 73
-47 8 -5 17 -27 20 -48 14 -94 87 -177 180 -206 104 -32 185 -13 259 62 29 29
57 60 62 69 8 14 32 18 136 23 69 3 134 7 145 9 17 3 96 13 148 19 15 2 27
-16 57 -85 178 -416 399 -686 641 -785 183 -74 380 -57 549 47 47 29 49 29 85
14 127 -53 286 14 342 145 25 59 20 160 -11 215 l-25 45 62 123 c35 68 78 159
95 203 l33 81 86 -14 c133 -22 514 -21 620 1 310 64 504 206 587 432 20 53 28
97 32 180 4 85 9 112 21 119 26 15 70 68 89 106 26 51 27 164 2 215 -47 98
-135 157 -236 156 -40 0 -44 2 -70 47 -50 87 -198 293 -215 300 -17 8 -5 31
53 107 153 200 288 450 324 605 41 168 43 328 6 441 -41 130 -143 253 -272
330 -59 35 -68 45 -74 77 -26 142 -143 235 -284 225 -78 -5 -171 -65 -207
-135 -13 -25 -20 -28 -67 -29 -70 0 -173 -7 -222 -13 -67 -9 -129 -17 -149
-19 -15 -2 -29 21 -70 114 -71 160 -117 247 -194 364 -76 114 -228 273 -315
329 -144 93 -310 130 -454 100z m217 -156 c217 -54 442 -314 605 -698 19 -46
34 -84 32 -85 -1 -1 -33 -10 -72 -20 -181 -46 -378 -109 -562 -182 l-113 -45
-152 60 c-169 66 -293 106 -473 153 -66 17 -122 32 -123 34 -2 2 3 18 11 37 8
18 30 67 49 108 18 41 47 102 65 134 l31 59 84 1 c94 2 140 20 194 78 55 58
69 95 67 178 -1 41 -3 86 -5 100 -3 22 5 29 57 54 101 50 198 61 305 34z
m-570 -83 c29 -9 70 -63 70 -91 0 -42 -27 -92 -59 -108 -38 -20 -64 -20 -106
-1 -82 40 -77 164 8 200 30 13 47 13 87 0z m2127 -646 c19 -16 43 -63 43 -84
0 -32 -33 -86 -61 -100 -39 -20 -76 -19 -114 5 -78 48 -63 168 25 196 36 12
80 5 107 -17z m-2732 -155 c55 -7 103 -13 107 -14 4 0 -2 -30 -13 -67 -37
-127 -88 -344 -103 -438 -3 -16 -12 -70 -20 -120 -9 -49 -16 -102 -16 -116 0
-21 -16 -39 -72 -85 -152 -121 -267 -223 -393 -346 -71 -71 -131 -128 -132
-128 -6 0 -127 169 -167 233 l-48 76 28 36 c64 84 74 188 29 282 -39 78 -89
115 -204 149 -11 4 -12 20 -8 77 10 118 44 194 126 280 68 71 207 143 316 163
16 3 62 11 100 18 92 17 345 17 470 0z m2413 -21 c16 -55 74 -118 135 -147 43
-20 65 -24 122 -22 78 2 115 18 176 73 l39 35 49 -31 c295 -189 276 -576 -51
-1051 -32 -47 -70 -100 -86 -118 l-27 -33 -125 124 c-103 102 -265 246 -356
317 -113 88 -111 84 -119 157 -4 37 -8 77 -10 88 -5 30 -16 104 -16 110 0 2
-4 19 -9 36 -5 18 -12 51 -15 73 -7 47 -79 329 -94 369 -8 20 -7 27 2 28 6 1
23 2 37 4 14 2 52 6 85 10 33 4 61 8 62 9 1 0 44 2 95 4 l94 3 12 -38z m-1982
-64 c102 -26 390 -121 423 -139 14 -7 -31 -33 -209 -123 -96 -48 -295 -167
-448 -269 -40 -26 -74 -48 -76 -48 -2 0 0 17 4 38 5 20 11 56 14 79 12 93 104
465 123 496 5 8 8 7 169 -34z m1456 -30 c26 -90 58 -209 63 -239 3 -14 18 -88
34 -165 15 -77 27 -141 26 -143 -2 -2 -43 23 -91 56 -177 118 -357 221 -544
314 -123 61 -115 56 -107 64 5 6 348 125 357 125 3 0 23 4 45 10 22 6 49 13
60 15 11 2 43 10 70 18 28 8 54 13 59 12 5 -1 18 -31 28 -67z m-601 -301 c332
-167 750 -430 754 -473 1 -11 5 -56 9 -100 23 -237 23 -627 1 -888 -4 -43 -8
-86 -10 -95 -2 -9 -4 -20 -4 -24 -2 -12 -340 -232 -481 -314 -148 -85 -467
-244 -489 -244 -22 0 -341 159 -491 245 -141 80 -479 301 -481 313 0 4 -2 15
-4 24 -3 15 -7 60 -21 248 -7 99 -7 461 0 575 8 125 17 231 21 252 2 10 4 21
4 25 2 12 344 235 486 316 170 96 461 242 485 242 10 0 109 -46 221 -102z
m-2223 -330 c30 -56 5 -136 -50 -159 -44 -18 -99 -5 -132 32 -25 28 -28 38
-23 77 9 82 86 127 157 91 20 -9 41 -28 48 -41z m868 -256 c-16 -27 -24 -492
-12 -730 8 -152 16 -146 -85 -62 -118 100 -369 345 -369 361 0 17 262 271 370
359 30 25 63 53 74 63 21 18 30 22 22 9z m2369 -77 c121 -101 365 -338 365
-355 0 -8 -158 -169 -250 -255 -125 -115 -239 -203 -216 -167 17 27 24 462 12
706 -8 170 -19 161 89 71z m-2824 -588 c131 -130 232 -220 374 -334 94 -75
101 -83 103 -119 2 -22 5 -46 7 -54 2 -8 7 -35 10 -60 9 -66 54 -295 72 -365
8 -33 17 -70 19 -83 3 -13 15 -56 28 -97 l23 -73 -61 -7 c-33 -4 -70 -9 -81
-11 -11 -2 -70 -7 -131 -10 l-111 -5 -11 38 c-28 93 -123 163 -231 171 -80 5
-135 -15 -200 -73 l-41 -37 -49 31 c-96 62 -177 172 -196 266 -32 164 9 369
113 570 52 99 231 365 247 365 1 0 54 -51 116 -113z m3418 -52 c99 -145 96
-139 67 -178 -85 -111 -80 -248 13 -351 30 -33 115 -76 150 -76 23 0 23 -1 18
-77 -10 -131 -51 -218 -142 -302 -97 -88 -254 -149 -441 -170 -74 -8 -321 -6
-389 3 -16 2 -54 7 -84 10 -30 4 -58 9 -62 11 -4 3 0 26 8 52 47 150 106 413
129 581 3 24 7 51 9 60 2 9 4 29 4 44 1 23 19 42 99 105 53 43 113 91 132 108
111 97 146 130 250 233 l115 114 28 -33 c15 -19 59 -79 96 -134z m342 -263
c24 -21 32 -38 36 -75 5 -43 3 -49 -30 -82 -30 -30 -42 -35 -80 -35 -37 0 -51
5 -76 31 -29 28 -36 49 -32 89 10 91 115 132 182 72z m-3008 -290 c145 -98
384 -235 576 -332 46 -23 61 -34 50 -40 -32 -17 -286 -101 -406 -133 -205 -56
-178 -60 -207 35 -24 78 -53 186 -61 225 -1 10 -11 54 -20 98 -23 108 -42 215
-38 215 2 0 50 -31 106 -68z m1782 48 c-3 -4 -7 -23 -9 -41 -4 -31 -27 -146
-41 -209 -3 -14 -7 -36 -10 -50 -10 -51 -76 -285 -83 -291 -4 -4 -65 9 -137
27 -71 19 -137 36 -145 38 -32 9 -257 86 -289 99 l-35 15 75 37 c75 38 180 94
234 125 127 72 245 145 330 201 88 58 127 76 110 49z m-832 -545 c130 -53 406
-144 537 -175 52 -13 97 -24 99 -26 5 -4 -97 -230 -129 -288 l-28 -48 -83 -2
c-64 -1 -94 -7 -124 -23 -48 -25 -96 -75 -120 -123 -20 -38 -26 -141 -12 -201
l9 -36 -74 -31 c-89 -39 -104 -43 -190 -43 -221 -2 -439 180 -617 513 -40 74
-131 272 -131 284 0 1 33 10 73 19 158 37 413 120 572 186 50 21 95 38 100 38
6 1 59 -19 118 -44z m-1654 -70 c64 -32 72 -134 16 -182 -31 -27 -99 -31 -133
-7 -34 24 -54 70 -46 107 18 82 91 120 163 82z m2096 -630 c94 -45 66 -202
-36 -207 -45 -2 -58 2 -88 28 -57 47 -50 137 13 175 38 23 68 24 111 4z"/>
<path d="M2445 3288 c-218 -28 -392 -134 -443 -271 -21 -56 -22 -69 -19 -475
2 -411 2 -418 25 -459 84 -158 290 -255 542 -256 107 0 153 5 225 24 22 6 45
12 50 14 51 12 152 67 203 111 26 23 61 66 77 95 l30 54 0 435 c0 432 0 435
-23 477 -32 60 -74 106 -137 148 -58 38 -157 79 -215 89 -19 3 -46 8 -60 11
-43 10 -192 11 -255 3z m205 -442 c78 -7 174 -31 215 -53 14 -8 7 -14 -36 -32
-153 -66 -386 -66 -542 1 -47 21 -47 21 -23 33 46 24 139 47 220 54 45 4 86 6
91 5 6 -2 39 -5 75 -8z m-444 -210 c116 -56 190 -71 354 -71 162 0 236 15 350
69 36 17 68 32 73 34 4 2 5 -30 3 -71 -3 -57 -9 -83 -25 -106 -60 -84 -207
-141 -371 -144 -159 -3 -249 16 -347 73 -80 46 -104 84 -110 175 -3 41 -3 75
-1 75 2 0 35 -15 74 -34z m94 -405 c92 -29 140 -35 260 -35 162 0 264 23 377
84 l52 27 -2 -72 c-2 -59 -7 -80 -29 -111 -55 -84 -215 -144 -383 -146 -112
-1 -156 5 -234 32 -153 51 -211 116 -211 234 l0 64 53 -28 c28 -16 81 -38 117
-49z"/>
</g>
</svg>
